<?xml version="1.0" encoding="UTF-8"?>
<svg width="2147px" height="987px" viewBox="0 0 2147 987" version="1.1" xmlns="http://www.w3.org/2000/svg" xmlns:xlink="http://www.w3.org/1999/xlink">
    <!-- Generator: Sketch 49.3 (51167) - http://www.bohemiancoding.com/sketch -->
    <title>Path 2</title>
    <desc>Created with Sketch.</desc>
    <defs></defs>
    <g id="Page-1" stroke="none" stroke-width="1" fill="none" fill-rule="evenodd">
        <path d="M0.0419810552,573.915504 C38.274168,573.915504 76.6359881,570.769791 114.738542,573.915504 C155.949615,577.317854 233.324294,646.306563 252.744253,660.796478 C290.776571,689.17373 295.032364,703.975336 338.071284,749.650961 C534.366015,957.971347 313.888095,721.218527 385.777346,791.467577 C415.705091,820.7125 463.386293,872.965547 501.732601,896.094585 C504.633387,897.844229 508.584478,895.377877 511.895391,896.094585 C524.782511,898.884238 537.112404,903.980511 550.044701,906.552624 C649.249055,926.283442 758.185649,926.975242 857.632253,923.039963 C865.801295,922.716699 870.016299,884.320651 870.141497,876.670292 C870.941813,827.766268 882.692897,790.612664 824.673114,797.372562 C796.416902,800.664699 787.639697,850.989371 800.276203,869.537692 C805.426096,877.096892 812.396534,883.273705 819.047839,889.552483 C853.251221,921.840198 958.123606,930.961232 992.607775,915.907363 C996.524733,914.197437 1000.32608,912.13995 1003.79617,909.644971 C1007.59432,906.914111 1011.22628,903.860528 1014.28529,900.321311 C1016.37289,897.905993 1017.82215,894.958615 1019.04035,892.007714 C1021.87147,885.149798 1025.08061,878.301166 1026.3905,870.998399 C1027.93928,862.363807 1031.67595,852.433776 1027.52488,844.705677 C1024.72125,839.486113 995.213245,835.913634 991.815264,844.255034 C973.279019,889.758003 1012.86266,916.58691 1050.98943,926.380941 C1059.42504,928.547888 1067.83229,931.208557 1076.50518,932.006216 C1088.33773,933.094474 1100.98792,936.073471 1112.15264,932.006216 C1130.20663,925.429234 1154.93223,881.351745 1162.70242,865.295427 C1178.51118,832.628189 1185.76586,794.19777 1191.57469,759.067858 C1200.8864,702.753638 1200.14623,658.702527 1262.99392,635.560438 C1271.42656,632.455331 1280.14984,629.922171 1289.03801,628.598771 C1338.23229,621.274017 1409.97783,618.938778 1455.41873,622.585011 C1469.84886,623.742901 1496.52604,639.857837 1508.22173,647.83659 C1561.50058,684.183228 1603.62895,748.11652 1620.13673,810.658778 C1641.11283,890.129984 1626.12744,879.703677 1629.98873,977.163811 C1630.10598,980.123168 1633.19284,982.548138 1635.86264,983.830228 C1639.20154,985.433639 1643.17719,985.187702 1646.8801,985.275395 C1663.54406,985.670034 1680.25586,986.407573 1696.88599,985.275395 C1792.3028,978.779429 1821.44836,871.219473 1855.54361,802.127629 C1917.13858,677.309372 1899.61853,733.27517 1941.81855,621.590487 C1949.42465,601.460512 1948.03254,592.923059 1952.58738,571.522431 C1968.4644,496.925169 1983.67665,409.14144 2015.47546,338.664016 C2082.89506,189.238352 2086.29471,235.435101 2134.6163,75.7989538 C2141.96264,51.5294648 2142.01307,25.6273019 2145.71146,0.541475993" id="Path-2" stroke="#979797"></path>
    </g>
</svg>